<svg width="11" height="13" viewBox="0 0 11 13" fill="none" xmlns="http://www.w3.org/2000/svg">
<path d="M7.29771 6.175C7.29771 6.5715 7.01486 6.8965 6.65657 6.8965C6.30457 6.8965 6.01543 6.5715 6.01543 6.175C6.01543 5.7785 6.29829 5.4535 6.65657 5.4535C7.01486 5.4535 7.29771 5.7785 7.29771 6.175ZM4.36229 5.4535C4.004 5.4535 3.72114 5.7785 3.72114 6.175C3.72114 6.5715 4.01029 6.8965 4.36229 6.8965C4.72057 6.8965 5.00343 6.5715 5.00343 6.175C5.00971 5.7785 4.72057 5.4535 4.36229 5.4535ZM11 1.339V13C9.41644 11.5529 9.92288 12.0319 8.08343 10.2635L8.41657 11.466H1.28857C0.578286 11.466 0 10.868 0 10.127V1.339C0 0.598 0.578286 0 1.28857 0H9.71143C10.4217 0 11 0.598 11 1.339ZM9.20857 7.501C9.20857 5.408 8.30343 3.7115 8.30343 3.7115C7.39829 3.0095 6.53714 3.029 6.53714 3.029L6.44914 3.133C7.51771 3.471 8.01429 3.9585 8.01429 3.9585C6.52116 3.11226 4.76722 3.1121 3.31886 3.77C3.08629 3.8805 2.948 3.9585 2.948 3.9585C2.948 3.9585 3.46971 3.445 4.60114 3.107L4.53829 3.029C4.53829 3.029 3.67714 3.0095 2.772 3.7115C2.772 3.7115 1.86686 5.408 1.86686 7.501C1.86686 7.501 2.39486 8.4435 3.784 8.489C3.784 8.489 4.01657 8.1965 4.20514 7.9495C3.40686 7.7025 3.10514 7.1825 3.10514 7.1825C3.19761 7.24943 3.35009 7.33619 3.36286 7.345C4.42382 7.9594 5.93087 8.1607 7.28514 7.5725C7.50514 7.488 7.75029 7.3645 8.008 7.189C8.008 7.189 7.69371 7.722 6.87029 7.9625C7.05886 8.2095 7.28514 8.489 7.28514 8.489C8.67429 8.4435 9.20857 7.501 9.20857 7.501Z" fill="#F4F4F4"/>
</svg>
