<svg width="11" height="11" viewBox="0 0 11 11" fill="none" xmlns="http://www.w3.org/2000/svg">
<path d="M11 5.5C11 8.53831 8.53387 11 5.49113 11C2.96734 11 0.842742 9.30786 0.190726 6.99919L2.30202 7.87077C2.44395 8.58266 3.07601 9.12157 3.83004 9.12157C4.6994 9.12157 5.4246 8.40302 5.38689 7.49153L7.26089 6.15645C8.41633 6.18528 9.38548 5.24939 9.38548 4.08286C9.38548 2.93851 8.45403 2.00927 7.30746 2.00927C6.16089 2.00927 5.22944 2.94073 5.22944 4.08286V4.10948L3.91653 6.01008C3.57278 5.99012 3.23569 6.08548 2.95181 6.27843L0 5.05867C0.22621 2.22661 2.59698 0 5.49113 0C8.53387 0 11 2.46169 11 5.5ZM3.45302 8.34536L2.77661 8.06593C2.90091 8.32403 3.11553 8.52761 3.37984 8.6381C3.97641 8.88649 4.66169 8.60262 4.91008 8.00827C5.02984 7.71996 5.03206 7.40282 4.9123 7.11452C4.79254 6.82621 4.56855 6.6 4.28024 6.48024C3.99415 6.36048 3.6881 6.36492 3.41754 6.46694L4.11613 6.75524C4.55524 6.9371 4.76371 7.44052 4.57964 7.87964C4.39556 8.32097 3.89214 8.52722 3.45302 8.34536ZM7.30746 5.46452C6.54456 5.46452 5.92359 4.84355 5.92359 4.08286C5.92359 3.32218 6.54456 2.70121 7.30746 2.70121C8.07036 2.70121 8.69133 3.32218 8.69133 4.08286C8.69133 4.84355 8.07258 5.46452 7.30746 5.46452ZM7.30968 5.11855C7.88407 5.11855 8.3498 4.65282 8.3498 4.08065C8.3498 3.50625 7.88407 3.04274 7.30968 3.04274C6.73528 3.04274 6.26956 3.50847 6.26956 4.08065C6.27177 4.65282 6.7375 5.11855 7.30968 5.11855Z" fill="#F4F4F4"/>
</svg>
